# xmcd CD database file
#
# Track frame offsets:
#	150
#	16862
#	36818
#	59465
#	85374
#	103289
#	127278
#	144414
#	165785
#	186319
#	200442
#
# Disc length: 2907 seconds
#
# Revision: 0
# Processed by: cddbd v1.5.2PL0 Copyright (c) Steve Scherf et al.
# Submitted via: CDex 1.70beta2
#
DISCID=980b590b
DTITLE=Furlan Shop Orchestra - Banda di Masnadieri
DYEAR=2006
DGENRE=Salsa
TTITLE0=A chi potrei raccontare
TTITLE1=In questo vecchio porto
TTITLE2=I buoni uffici
TTITLE3=Il drago Ermione
TTITLE4=L'apostolo
TTITLE5=Prendimi per mano
TTITLE6=Il superbo moto
TTITLE7=Tarzan nello spazio
TTITLE8=Lo specchio
TTITLE9=Il macchinista
TTITLE10=La radio Messicana
EXTD=YEAR: 2006
EXTT0=
EXTT1=
EXTT2=
EXTT3=
EXTT4=
EXTT5=
EXTT6=
EXTT7=
EXTT8=
EXTT9=
EXTT10=
PLAYORDER=
